<?xml version="1.0" encoding="UTF-8"?>
<svg id="Layer_2" xmlns="http://www.w3.org/2000/svg" viewBox="0 0 384.54 265.71">
  <defs>
    <style>
      .cls-1 {
        letter-spacing: -.02em;
      }

      .cls-1, .cls-2 {
        font-family: ZxGamut-Bold, 'Zx Gamut';
        font-size: 74.17px;
      }

      .cls-1, .cls-2, .cls-3, .cls-4, .cls-5 {
        isolation: isolate;
      }

      .cls-1, .cls-2, .cls-4, .cls-5 {
        font-weight: 700;
      }

      .cls-1, .cls-2, .cls-4, .cls-5, .cls-6 {
        fill: #954c2e;
      }

      .cls-2 {
        letter-spacing: -.05em;
      }

      .cls-4, .cls-5 {
        font-family: Athelas-Bold, Athelas;
        font-size: 31.77px;
      }

      .cls-5 {
        letter-spacing: -.04em;
      }

      .cls-7 {
        letter-spacing: -.06em;
      }

      .cls-8 {
        letter-spacing: -.03em;
      }
    </style>
  </defs>
  <g id="Layer_2-2" data-name="Layer_2">
    <g id="Layer_1-2">
      <g>
        <path class="cls-6" d="M225.41,70.69c0-18.29.02-36.58-.03-54.87.11-4.16-3.93-7.94-8.11-7.59-2.73.06-5.47.04-8.2,0-.66,0-.75.26-.69.8.36,3.15-1.72,4.66-3.83,4.67-7.39.04-14.79.04-22.18,0-2.18-.01-4.2-1.58-3.85-4.66.06-.52,0-.82-.68-.81-3.26.04-6.53-.14-9.77.07-2.43.16-4.26,1.68-5.5,3.74-.92,1.53-1.16,3.24-1.1,5.03.09,2.66-.03,5.33.04,7.99.05,1.94-.7,3.42-2.21,4.58-.81.62-2.41.42-3.3-.18-1.69-1.14-2.11-2.75-2.09-4.64.02-7.97-.88-15.75,6.11-21.35C165.6-.82,173.13.1,179.72.08c12.55-.09,25.09-.13,37.64.03,9.12-.2,15.76,7.98,15.6,16.81.02,35.92.03,71.83,0,107.75,0,3.42-.79,6.67-2.68,9.63-2.87,4.58-8.15,7.42-13.52,7.22-15.63.03-31.26.03-46.89,0-1.57,0-3.21.02-4.67-.64-5.49-1.94-9.29-6.03-10.72-11.69-.99-4.89-.47-9.94-.53-14.9-.15-3.68,4.02-6.17,6.65-2.94.55.94.93,1.96.92,3.1-.03,3.75-.04,7.5,0,11.25,0,4.09,3.53,7.91,7.74,7.66,16.33-.03,32.66-.05,49,.02,2.6,0,5.85-2.53,6.63-4.92.4-1.22.56-2.39.56-3.63v-54.14h-.04Z"/>
        <path class="cls-6" d="M176.67,107.03c-.22,2.67-1.94,4.99-5.01,5.09-2.68.09-5.06-1.92-5.12-5.03-.05-2.66,1.89-4.99,4.95-5.09,2.68-.09,4.88,1.92,5.18,5.03Z"/>
        <path class="cls-6" d="M149.75,107.06c-.25,2.77-2.07,5.01-5.04,5.07-2.77.06-5.08-2.05-5.1-5.06-.02-2.77,2.01-5.01,4.98-5.07,2.77-.06,4.89,2.05,5.15,5.06h.01Z"/>
        <path class="cls-6" d="M193.8,49.7c-.45-2.41-1.74-3.84-4.48-3.83-18.78.02-37.56,0-56.35,0-.25,0-.5-.04-.73,0-.51.11-.72-.25-.81-.6-.32-1.29-.57-2.59-.87-3.88-.72-3.04-1.65-4.69-5.41-4.59-3.82.1-7.64.03-11.46.02-.66,0-1.3.05-1.94.21-1.69.43-3.08,2.8-2.71,4.49.48,2.21,2.29,3.61,4.55,3.53,3.15-.11,6.31-.02,9.46-.04.53,0,.73.08.84.69.29,1.57.76,3.1,1.15,4.65.87,3.5,1.73,6.99,2.59,10.49,1.09,4.46,2.12,8.93,3.25,13.37.66,2.6,1.33,5.2,1.95,7.81.89,3.73,1.9,7.44,2.69,11.2.45,2.16,2.23,3.33,4.41,3.33,12.33-.02,24.67-.01,37,0,.66,0,1.3-.05,1.94-.21,1.58-.42,3.09-2.52,2.79-4.01-.53-2.6-1.81-3.76-4.55-3.76-11.32-.01-22.64,0-33.95,0-.25,0-.49-.01-.74,0-.35.02-.42-.12-.5-.47-.58-2.55-1.22-5.08-1.86-7.74h1.24c14.47,0,28.94-.02,43.42.02,2.72,0,4.19-1.85,4.55-4.16.41-2.63.9-5.25,1.37-7.87.45-2.55.9-5.11,1.36-7.66.47-2.65.95-5.31,1.41-7.96.18-1.01.6-2.08.42-3.03h-.03ZM183.1,68.32c-.19,1.04-.4,2.08-.54,3.12-.1.73-.39.72-.91.72h-42.89c-.46,0-.72.03-.88-.64-1.32-5.59-2.73-11.15-4.12-16.72-.13-.52-.02-.82.6-.73.21.03.42,0,.63,0h50.57c-.81,4.78-1.58,9.52-2.45,14.25h-.01Z"/>
      </g>
      <g class="cls-3">
        <text class="cls-1" transform="translate(0 211.28)"><tspan x="0" y="0">G</tspan></text>
        <text class="cls-1" transform="translate(53.71 211.28)"><tspan x="0" y="0">R</tspan></text>
        <text class="cls-2" transform="translate(103.14 211.28)"><tspan x="0" y="0">O</tspan></text>
        <text class="cls-1" transform="translate(157.25 211.28)"><tspan x="0" y="0">WHUB</tspan></text>
      </g>
      <polyline class="cls-6" points="5.49 220.71 5.49 223.71 381.49 223.42 381.49 220.42 5.49 220.71"/>
      <g class="cls-3">
        <text class="cls-5" transform="translate(2.93 251.92)"><tspan x="0" y="0">F</tspan></text>
        <text class="cls-4" transform="translate(19.76 251.92)"><tspan x="0" y="0">rom Heritage to L</tspan></text>
        <text class="cls-4" transform="translate(257.91 251.92)"><tspan class="cls-7" x="0" y="0">i</tspan><tspan class="cls-8" x="7.72" y="0">v</tspan></text>
        <text class="cls-4" transform="translate(280.5 251.92)"><tspan x="0" y="0">elihood</tspan></text>
      </g>
    </g>
  </g>
</svg>