<?xml version="1.0" encoding="UTF-8"?>
<svg id="Layer_1" xmlns="http://www.w3.org/2000/svg" viewBox="0 0 458.12 152.88">
  <defs>
    <style>
      .cls-1 {
        font-family: Athelas-Bold, Athelas;
        font-size: 25.46px;
      }

      .cls-1, .cls-2, .cls-3 {
        isolation: isolate;
      }

      .cls-1, .cls-3 {
        font-weight: 700;
      }

      .cls-1, .cls-3, .cls-4 {
        fill: #954c2e;
      }

      .cls-3 {
        font-family: ZxGamut-Bold, 'Zx Gamut';
        font-size: 59.4px;
      }

      .cls-5 {
        letter-spacing: -.03em;
      }
    </style>
  </defs>
  <g>
    <path class="cls-4" d="M125.86,76.51V17.14c0-4.54-4.22-8.54-8.76-8.22h-8.87c-.76,0-.87.32-.76.87.43,3.46-1.84,5.08-4.11,5.08h-24.01c-2.38,0-4.54-1.73-4.11-5.08,0-.54,0-.87-.76-.87-3.57,0-7.03-.11-10.6,0-2.6.22-4.65,1.84-5.95,4-.97,1.62-1.3,3.46-1.19,5.41v8.65c0,2.05-.76,3.68-2.38,4.98-.87.65-2.6.43-3.57-.22-1.84-1.19-2.27-3.03-2.27-4.98,0-8.65-.97-17.09,6.6-23.15C61.18-.82,69.4.16,76.43.05,90.06.05,103.58-.06,117.1.05c9.84-.22,17.09,8.65,16.87,18.17v116.48c0,3.68-.87,7.25-2.92,10.38-3.14,4.98-8.87,8-14.6,7.79h-50.73c-1.73,0-3.46,0-5.08-.65-5.95-2.05-10.06-6.49-11.57-12.65-1.08-5.3-.54-10.71-.54-16.12-.22-4,4.33-6.71,7.25-3.14.54.97.97,2.16.97,3.35v12.11c0,4.43,3.79,8.54,8.33,8.33h53c2.81,0,6.27-2.7,7.14-5.3.43-1.3.65-2.6.65-3.89v-58.51h0v.11Z"/>
    <path class="cls-4" d="M73.19,115.78c-.22,2.92-2.05,5.41-5.41,5.52-2.92,0-5.52-2.05-5.52-5.41s2.05-5.41,5.41-5.52c2.92,0,5.3,2.05,5.62,5.41h-.11Z"/>
    <path class="cls-4" d="M44.09,115.88c-.22,3.03-2.27,5.41-5.41,5.52-3.03,0-5.52-2.27-5.52-5.52s2.16-5.41,5.41-5.52c3.03,0,5.3,2.27,5.62,5.52h-.11Z"/>
    <path class="cls-4" d="M91.68,53.8c-.43-2.6-1.84-4.11-4.87-4.11H25.92c-20.23,0-.54,0-.76,0-.54,0-.76-.22-.87-.65-.32-1.41-.65-2.81-.97-4.22-.76-3.24-1.73-5.08-5.84-4.98H5.05c-.76,0-1.41,0-2.05.22-1.84.43-3.35,3.03-2.92,4.87.54,2.38,2.49,3.89,4.98,3.79h10.27c3.46,0,.76,0,.87.76.32,1.73.87,3.35,1.19,5.08.97,3.79,1.84,7.57,2.81,11.36,1.19,4.87,2.27,9.63,3.46,14.49.76,2.81,1.41,5.62,2.16,8.44.97,4,2.05,8,2.92,12.11.54,2.38,2.38,3.57,4.76,3.57h40.02c.76,0,1.41,0,2.05-.22,1.73-.43,3.35-2.7,3.03-4.33-.54-2.81-1.95-4.11-4.98-4.11h-36.77c-12.33,0-.54,0-.76,0-.32,0-.43,0-.54-.54-.65-2.81-1.3-5.52-2.05-8.33h48.24c2.92,0,4.54-1.95,4.98-4.54.43-2.81.97-5.62,1.51-8.54.43-2.81.97-5.52,1.51-8.33.54-2.92.97-5.73,1.51-8.65.22-1.08.65-2.27.43-3.24h0v.11ZM80.11,73.92c-.22,1.08-.43,2.27-.54,3.35,0,.76-.43.76-.97.76h-46.4c-.54,0-.76,0-.97-.65-1.41-6.06-2.92-12.11-4.43-18.06-.11-.54,0-.87.65-.76h55.38c-.87,5.19-1.73,10.27-2.6,15.47h0l-.11-.11Z"/>
  </g>
  <g class="cls-2">
    <g class="cls-2">
      <g class="cls-2">
        <text class="cls-3" transform="translate(147.04 81.6)"><tspan x="0" y="0">G</tspan></text>
      </g>
    </g>
    <g class="cls-2">
      <g class="cls-2">
        <text class="cls-3" transform="translate(190.03 81.6)"><tspan x="0" y="0">R</tspan></text>
      </g>
    </g>
    <g class="cls-2">
      <g class="cls-2">
        <text class="cls-3" transform="translate(229.65 81.6)"><tspan x="0" y="0">O</tspan></text>
      </g>
    </g>
    <g class="cls-2">
      <g class="cls-2">
        <text class="cls-3" transform="translate(272.96 81.6)"><tspan x="0" y="0">WHUB</tspan></text>
      </g>
    </g>
  </g>
  <polyline class="cls-4" points="149.44 89.12 149.44 91.53 450.44 91.29 450.44 88.88 149.44 89.12"/>
  <g class="cls-2">
    <g class="cls-2">
      <g class="cls-2">
        <text class="cls-1" transform="translate(149.44 114.1)"><tspan x="0" y="0">F</tspan></text>
      </g>
    </g>
    <g class="cls-2">
      <g class="cls-2">
        <text class="cls-1" transform="translate(162.89 114.1)"><tspan x="0" y="0">rom Heritage to L</tspan></text>
      </g>
    </g>
    <g class="cls-2">
      <g class="cls-2">
        <text class="cls-1" transform="translate(353.5 114.1)"><tspan class="cls-5" x="0" y="0">i</tspan><tspan x="6.92" y="0">v</tspan></text>
      </g>
    </g>
    <g class="cls-2">
      <g class="cls-2">
        <text class="cls-1" transform="translate(371.59 114.1)"><tspan x="0" y="0">elihood</tspan></text>
      </g>
    </g>
  </g>
</svg>